<?xml version="1.0" encoding="UTF-8" standalone="no"?>
<svg
   width="584.86121"
   height="630.43091"
   viewBox="0 0 154.74452 166.80152"
   version="1.1"
   id="svg1734"
   inkscape:version="1.1 (c68e22c387, 2021-05-23)"
   sodipodi:docname="mine.svg"
   xmlns:inkscape="http://www.inkscape.org/namespaces/inkscape"
   xmlns:sodipodi="http://sodipodi.sourceforge.net/DTD/sodipodi-0.dtd"
   xmlns:xlink="http://www.w3.org/1999/xlink"
   xmlns="http://www.w3.org/2000/svg"
   xmlns:svg="http://www.w3.org/2000/svg"
   xmlns:rdf="http://www.w3.org/1999/02/22-rdf-syntax-ns#"
   xmlns:cc="http://creativecommons.org/ns#"
   xmlns:dc="http://purl.org/dc/elements/1.1/">
  <defs
     id="defs1728">
    <radialGradient
       inkscape:collect="always"
       xlink:href="#linearGradient2380"
       id="radialGradient2382"
       cx="-123.92302"
       cy="109.79706"
       fx="-123.92302"
       fy="109.79706"
       r="34.962795"
       gradientUnits="userSpaceOnUse"
       gradientTransform="matrix(-0.77534339,-1.108661,1.2040857,-0.84207885,-353.20909,67.706058)" />
    <linearGradient
       inkscape:collect="always"
       id="linearGradient2380">
      <stop
         style="stop-color:#989898;stop-opacity:1"
         offset="0"
         id="stop2376" />
      <stop
         style="stop-color:#4b4b4b;stop-opacity:1"
         offset="1"
         id="stop2378" />
    </linearGradient>
    <linearGradient
       inkscape:collect="always"
       xlink:href="#linearGradient3763"
       id="linearGradient3097"
       x1="-543.93799"
       y1="230.33537"
       x2="-511.20981"
       y2="230.1095"
       gradientUnits="userSpaceOnUse"
       gradientTransform="matrix(0.28348093,-0.14479246,0.14479246,0.28348093,-41.573676,-75.498112)" />
    <linearGradient
       inkscape:collect="always"
       id="linearGradient3763">
      <stop
         style="stop-color:#555555;stop-opacity:1"
         offset="0"
         id="stop3757" />
      <stop
         style="stop-color:#9a9a9a;stop-opacity:1"
         offset="0.31315789"
         id="stop3759" />
      <stop
         style="stop-color:#494949;stop-opacity:1"
         offset="1"
         id="stop3761" />
    </linearGradient>
    <linearGradient
       inkscape:collect="always"
       xlink:href="#linearGradient3763"
       id="linearGradient4373"
       gradientUnits="userSpaceOnUse"
       gradientTransform="matrix(0.28348093,-0.14479246,0.14479246,0.28348093,-41.573676,-75.498112)"
       x1="-488.13068"
       y1="230.13751"
       x2="-542.69202"
       y2="233.69624" />
    <linearGradient
       inkscape:collect="always"
       xlink:href="#linearGradient3763"
       id="linearGradient8853"
       gradientUnits="userSpaceOnUse"
       gradientTransform="matrix(0.28348093,-0.14479246,0.14479246,0.28348093,-41.573676,-75.498112)"
       x1="-553.66498"
       y1="227.43236"
       x2="-472.82562"
       y2="228.03357" />
    <radialGradient
       inkscape:collect="always"
       xlink:href="#linearGradient18079"
       id="radialGradient18081"
       cx="-137.47273"
       cy="94.75679"
       fx="-137.47273"
       fy="94.75679"
       r="2.7662058"
       gradientUnits="userSpaceOnUse"
       gradientTransform="matrix(-1.2512413,0.8875417,-0.8754309,-1.2341677,-226.68528,333.22524)" />
    <linearGradient
       inkscape:collect="always"
       id="linearGradient18079">
      <stop
         style="stop-color:#ba1136;stop-opacity:1;"
         offset="0"
         id="stop18075" />
      <stop
         style="stop-color:#7c182e;stop-opacity:1"
         offset="1"
         id="stop18077" />
    </linearGradient>
  </defs>
  <sodipodi:namedview
     id="base"
     pagecolor="#ffffff"
     bordercolor="#666666"
     borderopacity="1.0"
     inkscape:pageopacity="0.0"
     inkscape:pageshadow="2"
     inkscape:zoom="0.35"
     inkscape:cx="-151.42857"
     inkscape:cy="492.85714"
     inkscape:document-units="px"
     inkscape:current-layer="layer1"
     inkscape:document-rotation="0"
     showgrid="false"
     units="px"
     borderlayer="true"
     inkscape:showpageshadow="false"
     inkscape:pagecheckerboard="0"
     fit-margin-top="0"
     fit-margin-left="0"
     fit-margin-right="0"
     fit-margin-bottom="0"
     inkscape:window-width="2560"
     inkscape:window-height="1377"
     inkscape:window-x="2552"
     inkscape:window-y="-8"
     inkscape:window-maximized="1" />
  <metadata
     id="metadata1731">
    <rdf:RDF>
      <cc:Work
         rdf:about="">
        <dc:format>image/svg+xml</dc:format>
        <dc:type
           rdf:resource="http://purl.org/dc/dcmitype/StillImage" />
      </cc:Work>
    </rdf:RDF>
  </metadata>
  <g
     inkscape:label="Layer 1"
     inkscape:groupmode="layer"
     id="layer1"
     transform="translate(-75.330119,-17.896861)">
    <g
       id="g20491"
       transform="matrix(1.8323274,0,0,1.8323274,402.50547,-68.474549)">
      <path
         id="path9644"
         style="fill:#2c2c2c;fill-opacity:1;stroke-width:0.159848;stroke-linecap:round;stroke-linejoin:round;paint-order:fill markers stroke;stop-color:#000000"
         inkscape:transform-center-x="4.6524825"
         inkscape:transform-center-y="0.46981624"
         d="m -175.9717,96.908254 a 4.8898857,2.1614712 80.402903 0 0 -0.11321,3.747616 4.8898857,2.1614712 80.402903 0 0 2.94667,4.46111 4.8898857,2.1614712 80.402903 0 0 0.0571,-0.014 l 0.008,0.0484 9.64258,-1.63043 -0.0127,-0.075 a 4.8898857,2.1614712 80.402903 0 0 1.08892,-5.111698 4.8898857,2.1614712 80.402903 0 0 -2.70862,-4.469087 l -0.003,-0.02182 -0.10854,0.01857 a 4.8898857,2.1614712 80.402903 0 0 -0.12546,0.0117 4.8898857,2.1614712 80.402903 0 0 -0.12686,0.03072 l -9.20949,1.557054 a 4.8898857,2.1614712 80.402903 0 0 -0.132,0.01308 4.8898857,2.1614712 80.402903 0 0 -1.20268,1.43395 z" />
      <path
         id="path8857"
         style="fill:#2c2c2c;fill-opacity:1;stroke-width:0.198905;stroke-linecap:round;stroke-linejoin:round;paint-order:fill markers stroke;stop-color:#000000"
         inkscape:transform-center-x="-5.8173257"
         inkscape:transform-center-y="-0.098764312"
         d="m -94.692596,95.734268 a 6.0846426,2.6895884 85.355134 0 0 0.542906,-4.63373 6.0846426,2.6895884 85.355134 0 0 -3.173748,-5.846912 6.0846426,2.6895884 85.355134 0 0 -0.07227,0.01127 l -0.0049,-0.0609 -12.128922,0.985445 0.007,0.09426 a 6.0846426,2.6895884 85.355134 0 0 -1.89901,6.219971 6.0846426,2.6895884 85.355134 0 0 2.87779,5.831223 l 0.003,0.02751 0.13657,-0.01135 a 6.0846426,2.6895884 85.355134 0 0 0.15678,-9.07e-4 6.0846426,2.6895884 85.355134 0 0 0.16057,-0.02447 l 11.584151,-0.941001 a 6.0846426,2.6895884 85.355134 0 0 0.165062,-0.002 6.0846426,2.6895884 85.355134 0 0 1.644995,-1.648453 z" />
      <path
         id="path8855"
         style="fill:#2c2c2c;fill-opacity:1;stroke-width:0.219105;stroke-linecap:round;stroke-linejoin:round;paint-order:fill markers stroke;stop-color:#000000"
         inkscape:transform-center-x="0.67024696"
         inkscape:transform-center-y="6.3696243"
         d="m -144.38465,136.9289 a 6.7025895,2.9627388 2.4854176 0 0 4.99061,1.22699 6.7025895,2.9627388 2.4854176 0 0 6.82487,-2.66957 6.7025895,2.9627388 2.4854176 0 0 -0.002,-0.0805 l 0.0672,0.003 0.58128,-13.39212 -0.10408,-0.005 a 6.7025895,2.9627388 2.4854176 0 0 -6.53902,-2.92616 6.7025895,2.9627388 2.4854176 0 0 -6.76724,2.34821 l -0.0304,-0.001 -0.006,0.15085 a 6.7025895,2.9627388 2.4854176 0 0 -0.0203,0.1715 6.7025895,2.9627388 2.4854176 0 0 0.005,0.17886 l -0.55537,12.79059 a 6.7025895,2.9627388 2.4854176 0 0 -0.0204,0.1807 6.7025895,2.9627388 2.4854176 0 0 1.5769,2.02343 z" />
      <path
         id="path4150"
         style="fill:#2c2c2c;fill-opacity:1;stroke-width:0.242762;stroke-linecap:round;stroke-linejoin:round;paint-order:fill markers stroke;stop-color:#000000"
         inkscape:transform-center-x="-4.9903134"
         inkscape:transform-center-y="-5.0541309"
         d="m -103.75944,60.944718 a 7.4262788,3.2826304 40.779357 0 0 -3.49729,-4.49356 7.4262788,3.2826304 40.779357 0 0 -7.76772,-2.364573 7.4262788,3.2826304 40.779357 0 0 -0.0532,0.0717 l -0.0564,-0.04877 -9.70058,11.246449 0.0874,0.07537 a 7.4262788,3.2826304 40.779357 0 0 3.67711,7.034261 7.4262788,3.2826304 40.779357 0 0 7.49696,2.60445 l 0.0256,0.02186 0.10902,-0.126842 a 7.4262788,3.2826304 40.779357 0 0 0.13542,-0.135191 7.4262788,3.2826304 40.779357 0 0 0.11864,-0.158819 l 9.26504,-10.741156 a 7.4262788,3.2826304 40.779357 0 0 0.14179,-0.143124 7.4262788,3.2826304 40.779357 0 0 0.0181,-2.842257 z" />
      <path
         id="path4053"
         style="fill:#2c2c2c;fill-opacity:1;stroke-width:0.184608;stroke-linecap:round;stroke-linejoin:round;paint-order:fill markers stroke;stop-color:#000000"
         inkscape:transform-center-x="4.4507653"
         inkscape:transform-center-y="-3.0492858"
         d="m -174.21733,69.966272 a 2.4962751,5.6473109 30.647009 0 0 -2.89596,3.219189 2.4962751,5.6473109 30.647009 0 0 -0.73093,6.131164 2.4962751,5.6473109 30.647009 0 0 0.0608,0.03019 l -0.029,0.04865 9.71672,5.757206 0.0447,-0.07558 a 2.4962751,5.6473109 30.647009 0 0 4.77385,-3.693679 2.4962751,5.6473109 30.647009 0 0 0.94672,-5.960576 l 0.0129,-0.02209 -0.10954,-0.06462 a 2.4962751,5.6473109 30.647009 0 0 -0.11932,-0.08329 2.4962751,5.6473109 30.647009 0 0 -0.13476,-0.06757 l -9.2802,-5.498756 a 2.4962751,5.6473109 30.647009 0 0 -0.12611,-0.08696 2.4962751,5.6473109 30.647009 0 0 -2.1301,0.366727 z" />
      <circle
         style="fill:url(#radialGradient2382);fill-opacity:1;stroke:#2c2c2c;stroke-width:1.32292;stroke-linecap:round;stroke-linejoin:round;stroke-miterlimit:4;stroke-dasharray:none;stroke-opacity:1;paint-order:fill markers stroke;stop-color:#000000"
         id="path1876"
         cx="-136.6384"
         cy="95.438988"
         r="34.962795" />
      <g
         id="g4365"
         transform="matrix(1.0499466,0.12799564,-0.12799564,1.0499466,20.109531,13.703819)">
        <path
           id="path2530"
           style="fill:url(#linearGradient3097);fill-opacity:1;stroke-width:0.256425;stroke-linecap:round;stroke-linejoin:round;paint-order:fill markers stroke;stop-color:#000000"
           d="m -166.47971,59.723344 7.13613,13.9714 0.10852,-0.05543 a 3.4673917,7.8442633 62.943594 0 0 8.34607,-0.793947 3.4673917,7.8442633 62.943594 0 0 5.53564,-6.296359 l 0.0315,-0.0161 -0.0805,-0.157231 a 3.4673917,7.8442633 62.943594 0 0 -0.0784,-0.186184 3.4673917,7.8442633 62.943594 0 0 -0.10829,-0.179246 l -6.86916,-13.448734 z"
           inkscape:transform-center-x="2.9563367"
           inkscape:transform-center-y="-6.8949554" />
        <ellipse
           style="fill:#919191;fill-opacity:1;stroke-width:0.256425;stroke-linecap:round;stroke-linejoin:round;paint-order:fill markers stroke;stop-color:#000000"
           id="ellipse2738"
           cx="-167.51062"
           cy="-22.633184"
           rx="7.8442636"
           ry="3.4673917"
           inkscape:transform-center-x="6.5357603"
           inkscape:transform-center-y="-14.374041"
           transform="rotate(-27.056406)" />
      </g>
      <g
         id="g4371"
         transform="matrix(-0.09007486,-1.047969,1.047969,-0.09007486,-245.56529,-38.865959)">
        <path
           id="path4367"
           style="fill:url(#linearGradient4373);fill-opacity:1;stroke-width:0.256425;stroke-linecap:round;stroke-linejoin:round;paint-order:fill markers stroke;stop-color:#000000"
           d="m -166.47971,59.723344 7.13613,13.9714 0.10852,-0.05543 a 3.4673917,7.8442633 62.943594 0 0 8.34607,-0.793947 3.4673917,7.8442633 62.943594 0 0 5.53564,-6.296359 l 0.0315,-0.0161 -0.0805,-0.157231 a 3.4673917,7.8442633 62.943594 0 0 -0.0784,-0.186184 3.4673917,7.8442633 62.943594 0 0 -0.10829,-0.179246 l -6.86916,-13.448734 z"
           inkscape:transform-center-x="2.9563367"
           inkscape:transform-center-y="-6.8949554" />
        <ellipse
           style="fill:#545454;fill-opacity:1;stroke-width:0.256425;stroke-linecap:round;stroke-linejoin:round;paint-order:fill markers stroke;stop-color:#000000"
           id="ellipse4369"
           cx="-167.51062"
           cy="-22.633184"
           rx="7.8442636"
           ry="3.4673917"
           inkscape:transform-center-x="6.5357603"
           inkscape:transform-center-y="-14.374041"
           transform="rotate(-27.056406)" />
      </g>
      <g
         id="g8851"
         transform="matrix(-0.99127703,0.50723414,-0.50723414,-0.99127703,-230.99415,258.91283)">
        <path
           id="path8847"
           style="fill:url(#linearGradient8853);fill-opacity:1;stroke-width:0.256425;stroke-linecap:round;stroke-linejoin:round;paint-order:fill markers stroke;stop-color:#000000"
           d="m -166.47971,59.723344 6.63371,12.904046 0.10852,-0.05543 c 1.18785,1.366762 4.78362,1.024703 8.34607,-0.793947 3.56171,-1.820126 5.94665,-4.532813 5.53564,-6.296359 l 0.0315,-0.0161 -0.0805,-0.157231 c -0.0222,-0.064 -0.0483,-0.126088 -0.0784,-0.186184 -0.0319,-0.06195 -0.068,-0.12173 -0.10829,-0.179246 l -6.36674,-12.38138 z"
           inkscape:transform-center-x="2.9563367"
           inkscape:transform-center-y="-6.8949554"
           sodipodi:nodetypes="ccccccccccc" />
        <ellipse
           style="fill:#545454;fill-opacity:1;stroke-width:0.256425;stroke-linecap:round;stroke-linejoin:round;paint-order:fill markers stroke;stop-color:#000000"
           id="ellipse8849"
           cx="-167.51062"
           cy="-22.633184"
           rx="7.8442636"
           ry="3.4673917"
           inkscape:transform-center-x="6.5357603"
           inkscape:transform-center-y="-14.374041"
           transform="rotate(-27.056406)" />
      </g>
      <circle
         style="fill:#e7e7e7;fill-opacity:1;stroke:none;stroke-width:0.79375;stroke-linecap:round;stroke-linejoin:round;stroke-miterlimit:4;stroke-dasharray:none;stroke-opacity:1;paint-order:fill markers stroke;stop-color:#000000"
         id="path9060"
         cx="-136.70837"
         cy="95.972694"
         r="20.713387" />
      <rect
         style="opacity:1;fill:#000000;fill-opacity:1;stroke:none;stroke-width:0.745365;stroke-linecap:round;stroke-linejoin:round;stroke-miterlimit:4;stroke-dasharray:none;stroke-opacity:1;paint-order:fill markers stroke;stop-color:#000000"
         id="rect18535"
         width="2.2489624"
         height="14.882809"
         x="-138.2448"
         y="79.705719"
         ry="1.4290257" />
      <circle
         style="opacity:0.134615;fill:#000000;fill-opacity:1;stroke:#000000;stroke-width:1.17167;stroke-linecap:round;stroke-linejoin:round;stroke-miterlimit:4;stroke-dasharray:none;stroke-opacity:1;paint-order:fill markers stroke;stop-color:#000000"
         id="circle11378"
         cx="-137.07585"
         cy="96.476547"
         r="3.1068463" />
      <rect
         style="opacity:1;fill:#000000;fill-opacity:1;stroke:none;stroke-width:0.73149;stroke-linecap:round;stroke-linejoin:round;stroke-miterlimit:4;stroke-dasharray:none;stroke-opacity:1;paint-order:fill markers stroke;stop-color:#000000"
         id="rect19087"
         width="2.2489624"
         height="15.824904"
         x="163.78767"
         y="12.554311"
         ry="1.3763157"
         transform="rotate(135)" />
      <circle
         style="fill:url(#radialGradient18081);fill-opacity:1;stroke:none;stroke-width:1.44783;stroke-linecap:round;stroke-linejoin:round;stroke-miterlimit:4;stroke-dasharray:none;stroke-opacity:1;paint-order:fill markers stroke;stop-color:#000000"
         id="path9668"
         cx="-137.07585"
         cy="95.597809"
         r="3.8391371" />
      <path
         id="circle12190"
         style="fill:#cfcfcf;fill-opacity:1;stroke:none;stroke-width:0.79375;stroke-linecap:round;stroke-linejoin:round;stroke-miterlimit:4;stroke-dasharray:none;stroke-opacity:1;paint-order:fill markers stroke;stop-color:#000000"
         d="m -136.70845,75.227103 a 20.713386,20.713386 0 0 0 -20.36723,17.019632 20.94285,20.94285 0 0 1 20.36723,-16.094107 20.94285,20.94285 0 0 1 20.40289,16.221231 20.713386,20.713386 0 0 0 -20.40289,-17.146756 z" />
      <path
         style="fill:none;stroke:#2c2c2c;stroke-width:1.32292;stroke-linecap:round;stroke-linejoin:round;stroke-miterlimit:4;stroke-dasharray:none;stroke-opacity:1"
         d="m -156.68676,70.392112 -5.79975,-15.855765 c 0.74341,-5.077019 11.42237,-8.311369 15.43482,-5.893294 l 5.89329,16.463803"
         id="path16674"
         sodipodi:nodetypes="cccc" />
      <path
         style="fill:none;stroke:#2c2c2c;stroke-width:1.32292;stroke-linecap:round;stroke-linejoin:round;stroke-miterlimit:4;stroke-dasharray:none;stroke-opacity:1"
         d="m -154.10089,121.11745 -13.99754,9.43988 c -5.1069,0.49835 -10.81258,-9.09052 -9.42953,-13.56645 l 14.56528,-9.67678"
         id="path19373"
         sodipodi:nodetypes="cccc" />
      <path
         style="fill:none;stroke:#2c2c2c;stroke-width:1.32292;stroke-linecap:round;stroke-linejoin:round;stroke-miterlimit:4;stroke-dasharray:none;stroke-opacity:1"
         d="m -109.97143,105.99306 14.13872,10.00635 c 2.316675,4.69888 -4.88251,13.55872 -9.69764,13.83077 l -14.57135,-10.46414"
         id="path19377"
         sodipodi:nodetypes="cccc" />
      <ellipse
         style="opacity:1;fill:#ffffff;fill-opacity:0.266129;stroke:none;stroke-width:1.15495;stroke-linecap:round;stroke-linejoin:round;stroke-miterlimit:4;stroke-dasharray:none;stroke-opacity:1;paint-order:fill markers stroke;stop-color:#000000"
         id="path19437"
         cx="-161.92474"
         cy="37.24609"
         rx="11.668278"
         ry="7.8023577"
         transform="rotate(-18.357282)" />
    </g>
  </g>
</svg>
